<svg width="586" height="145" viewBox="0 0 586 145" fill="none" xmlns="http://www.w3.org/2000/svg">
<path d="M56.6947 24.7491C51.4339 27.0823 46.5059 30.4054 42.1929 34.7183C36.862 40.0493 33.0433 46.3199 30.737 52.9969H54.6947C55.7993 52.9969 56.6947 52.1015 56.6947 50.997V24.7491Z" fill="#459087"/>
<path d="M67.5814 21.4016C82.589 18.6774 98.6416 23.1163 110.244 34.7183C115.575 40.0493 119.393 46.32 121.7 52.9971L69.5814 52.9971C68.4769 52.9971 67.5814 52.1017 67.5814 50.9971V21.4016Z" fill="#60C5B9"/>
<path d="M85.2842 116.006C70.1541 118.894 53.9056 114.482 42.1929 102.769C39.2586 99.8348 36.7825 96.6158 34.7646 93.201L83.2842 93.201C84.3888 93.201 85.2842 94.0965 85.2842 95.201V116.006Z" fill="#60C5B9"/>
<path d="M30.0431 82.3148C28.2874 76.3216 27.721 70.0539 28.3437 63.8836H83.2842C84.3888 63.8836 85.2842 64.779 85.2842 65.8836V80.3148C85.2842 81.4194 84.3888 82.3148 83.2842 82.3148H30.0431Z" fill="#459087"/>
<path d="M124.093 63.8835C125.494 77.7632 120.877 92.1355 110.244 102.769C106.048 106.965 101.27 110.224 96.1705 112.546V65.8835C96.1705 64.7789 97.0659 63.8835 98.1705 63.8835L124.093 63.8835Z" fill="#459087"/>
<path fill-rule="evenodd" clip-rule="evenodd" d="M33.9874 122.995C60.9584 144.044 100.016 142.164 124.827 117.353C151.673 90.5067 151.673 46.9806 124.827 20.1345C97.9813 -6.71151 54.4552 -6.71151 27.6092 20.1345C2.79825 44.9455 0.917397 84.0033 21.9666 110.974L3.14657 129.794C-0.172881 133.114 -0.172882 138.496 3.14657 141.815C6.46603 145.135 11.8479 145.135 15.1674 141.815L33.9874 122.995ZM115.635 108.16C93.8657 129.93 58.5708 129.93 36.8016 108.16C15.0323 86.3911 15.0323 51.0962 36.8016 29.3269C58.5708 7.55769 93.8657 7.55769 115.635 29.3269C137.404 51.0962 137.404 86.3911 115.635 108.16Z" fill="#148571"/>
<path d="M197.064 49.536C198.792 47.104 201.16 45.088 204.168 43.488C207.24 41.824 210.728 40.992 214.632 40.992C219.176 40.992 223.272 42.112 226.92 44.352C230.632 46.592 233.544 49.792 235.656 53.952C237.832 58.048 238.92 62.816 238.92 68.256C238.92 73.696 237.832 78.528 235.656 82.752C233.544 86.912 230.632 90.144 226.92 92.448C223.272 94.752 219.176 95.904 214.632 95.904C210.728 95.904 207.272 95.104 204.264 93.504C201.32 91.904 198.92 89.888 197.064 87.456V120.384H183.624V41.856H197.064V49.536ZM225.192 68.256C225.192 65.056 224.52 62.304 223.176 60C221.896 57.632 220.168 55.84 217.992 54.624C215.88 53.408 213.576 52.8 211.08 52.8C208.648 52.8 206.344 53.44 204.168 54.72C202.056 55.936 200.328 57.728 198.984 60.096C197.704 62.464 197.064 65.248 197.064 68.448C197.064 71.648 197.704 74.432 198.984 76.8C200.328 79.168 202.056 80.992 204.168 82.272C206.344 83.488 208.648 84.096 211.08 84.096C213.576 84.096 215.88 83.456 217.992 82.176C220.168 80.896 221.896 79.072 223.176 76.704C224.52 74.336 225.192 71.52 225.192 68.256Z" fill="#148571"/>
<path d="M258.766 50.112C260.494 47.296 262.734 45.088 265.486 43.488C268.302 41.888 271.502 41.088 275.086 41.088V55.2H271.534C267.31 55.2 264.11 56.192 261.934 58.176C259.822 60.16 258.766 63.616 258.766 68.544V95.04H245.326V41.856H258.766V50.112Z" fill="#148571"/>
<path d="M304.395 95.904C299.275 95.904 294.667 94.784 290.571 92.544C286.475 90.24 283.243 87.008 280.875 82.848C278.571 78.688 277.419 73.888 277.419 68.448C277.419 63.008 278.603 58.208 280.971 54.048C283.403 49.888 286.699 46.688 290.859 44.448C295.019 42.144 299.659 40.992 304.779 40.992C309.899 40.992 314.539 42.144 318.699 44.448C322.859 46.688 326.123 49.888 328.491 54.048C330.923 58.208 332.139 63.008 332.139 68.448C332.139 73.888 330.891 78.688 328.395 82.848C325.963 87.008 322.635 90.24 318.411 92.544C314.251 94.784 309.579 95.904 304.395 95.904ZM304.395 84.192C306.827 84.192 309.099 83.616 311.211 82.464C313.387 81.248 315.115 79.456 316.395 77.088C317.675 74.72 318.315 71.84 318.315 68.448C318.315 63.392 316.971 59.52 314.283 56.832C311.659 54.08 308.427 52.704 304.587 52.704C300.747 52.704 297.515 54.08 294.891 56.832C292.331 59.52 291.051 63.392 291.051 68.448C291.051 73.504 292.299 77.408 294.795 80.16C297.355 82.848 300.555 84.192 304.395 84.192Z" fill="#148571"/>
<path d="M352.078 49.632C353.806 47.072 356.174 44.992 359.182 43.392C362.254 41.792 365.742 40.992 369.646 40.992C374.19 40.992 378.286 42.112 381.934 44.352C385.646 46.592 388.558 49.792 390.67 53.952C392.846 58.048 393.934 62.816 393.934 68.256C393.934 73.696 392.846 78.528 390.67 82.752C388.558 86.912 385.646 90.144 381.934 92.448C378.286 94.752 374.19 95.904 369.646 95.904C365.678 95.904 362.19 95.136 359.182 93.6C356.238 92 353.87 89.952 352.078 87.456V95.04H338.638V24H352.078V49.632ZM380.206 68.256C380.206 65.056 379.534 62.304 378.19 60C376.91 57.632 375.182 55.84 373.006 54.624C370.894 53.408 368.59 52.8 366.094 52.8C363.662 52.8 361.358 53.44 359.182 54.72C357.07 55.936 355.342 57.728 353.998 60.096C352.718 62.464 352.078 65.248 352.078 68.448C352.078 71.648 352.718 74.432 353.998 76.8C355.342 79.168 357.07 80.992 359.182 82.272C361.358 83.488 363.662 84.096 366.094 84.096C368.59 84.096 370.894 83.456 373.006 82.176C375.182 80.896 376.91 79.072 378.19 76.704C379.534 74.336 380.206 71.52 380.206 68.256Z" fill="#148571"/>
<path d="M449.78 67.296C449.78 69.216 449.652 70.944 449.396 72.48H410.516C410.836 76.32 412.18 79.328 414.548 81.504C416.916 83.68 419.828 84.768 423.284 84.768C428.276 84.768 431.828 82.624 433.94 78.336H448.436C446.9 83.456 443.956 87.68 439.604 91.008C435.252 94.272 429.908 95.904 423.572 95.904C418.452 95.904 413.844 94.784 409.748 92.544C405.716 90.24 402.548 87.008 400.244 82.848C398.004 78.688 396.884 73.888 396.884 68.448C396.884 62.944 398.004 58.112 400.244 53.952C402.484 49.792 405.62 46.592 409.652 44.352C413.684 42.112 418.324 40.992 423.572 40.992C428.628 40.992 433.14 42.08 437.108 44.256C441.14 46.432 444.244 49.536 446.42 53.568C448.66 57.536 449.78 62.112 449.78 67.296ZM435.86 63.456C435.796 60 434.548 57.248 432.116 55.2C429.684 53.088 426.708 52.032 423.188 52.032C419.86 52.032 417.044 53.056 414.74 55.104C412.5 57.088 411.124 59.872 410.612 63.456H435.86Z" fill="#148571"/>
<path d="M497.126 55.104V66.432H456.422V55.104H497.126Z" fill="#148571"/>
<path d="M522.279 50.112C524.007 47.296 526.247 45.088 528.999 43.488C531.815 41.888 535.015 41.088 538.599 41.088V55.2H535.047C530.823 55.2 527.623 56.192 525.447 58.176C523.335 60.16 522.279 63.616 522.279 68.544V95.04H508.839V41.856H522.279V50.112Z" fill="#148571"/>
<path d="M564.644 95.904C560.292 95.904 556.388 95.136 552.932 93.6C549.476 92 546.724 89.856 544.676 87.168C542.692 84.48 541.603 81.504 541.411 78.24H554.948C555.204 80.288 556.196 81.984 557.924 83.328C559.716 84.672 561.924 85.344 564.548 85.344C567.108 85.344 569.092 84.832 570.5 83.808C571.972 82.784 572.708 81.472 572.708 79.872C572.708 78.144 571.812 76.864 570.02 76.032C568.292 75.136 565.508 74.176 561.668 73.152C557.7 72.192 554.436 71.2 551.876 70.176C549.38 69.152 547.204 67.584 545.348 65.472C543.556 63.36 542.66 60.512 542.66 56.928C542.66 53.984 543.492 51.296 545.156 48.864C546.884 46.432 549.316 44.512 552.452 43.104C555.652 41.696 559.396 40.992 563.684 40.992C570.02 40.992 575.076 42.592 578.852 45.792C582.628 48.928 584.708 53.184 585.092 58.56H572.228C572.036 56.448 571.14 54.784 569.54 53.568C568.004 52.288 565.924 51.648 563.299 51.648C560.867 51.648 558.979 52.096 557.635 52.992C556.355 53.888 555.716 55.136 555.716 56.736C555.716 58.528 556.612 59.904 558.404 60.864C560.196 61.76 562.98 62.688 566.756 63.648C570.596 64.608 573.764 65.6 576.26 66.624C578.756 67.648 580.899 69.248 582.691 71.424C584.547 73.536 585.508 76.352 585.572 79.872C585.572 82.944 584.708 85.696 582.98 88.128C581.316 90.56 578.884 92.48 575.684 93.888C572.548 95.232 568.868 95.904 564.644 95.904Z" fill="#148571"/>
</svg>
