<svg width="585" height="145" viewBox="0 0 585 145" fill="none" xmlns="http://www.w3.org/2000/svg">
<path d="M56.0377 24.7491C50.777 27.0823 45.849 30.4054 41.536 34.7183C36.205 40.0493 32.3864 46.3199 30.0801 52.9969H54.0377C55.1423 52.9969 56.0377 52.1015 56.0377 50.997V24.7491Z" fill="black"/>
<path d="M66.9244 21.4016C81.932 18.6774 97.9846 23.1163 109.587 34.7183C114.918 40.0493 118.736 46.32 121.043 52.9971L68.9244 52.9971C67.8199 52.9971 66.9244 52.1017 66.9244 50.9971V21.4016Z" fill="black"/>
<path d="M84.6273 116.006C69.4972 118.894 53.2487 114.482 41.536 102.769C38.6017 99.8348 36.1256 96.6158 34.1077 93.201L82.6273 93.201C83.7318 93.201 84.6273 94.0965 84.6273 95.201V116.006Z" fill="black"/>
<path d="M29.3861 82.3148C27.6304 76.3216 27.064 70.0539 27.6867 63.8836H82.6272C83.7317 63.8836 84.6272 64.779 84.6272 65.8836V80.3148C84.6272 81.4194 83.7318 82.3148 82.6272 82.3148H29.3861Z" fill="black"/>
<path d="M123.436 63.8835C124.837 77.7632 120.22 92.1355 109.587 102.769C105.391 106.965 100.613 110.224 95.5134 112.546V65.8835C95.5134 64.7789 96.4089 63.8835 97.5134 63.8835L123.436 63.8835Z" fill="black"/>
<path fill-rule="evenodd" clip-rule="evenodd" d="M33.3304 122.995C60.3014 144.044 99.3594 142.164 124.17 117.353C151.016 90.5067 151.016 46.9806 124.17 20.1345C97.3243 -6.71151 53.7982 -6.71151 26.9522 20.1345C2.14126 44.9455 0.260414 84.0033 21.3096 110.974L2.48959 129.794C-0.829864 133.114 -0.829864 138.496 2.48959 141.815C5.80905 145.135 11.191 145.135 14.5104 141.815L33.3304 122.995ZM114.978 108.16C93.2087 129.93 57.9138 129.93 36.1446 108.16C14.3753 86.3911 14.3753 51.0962 36.1446 29.3269C57.9138 7.55769 93.2087 7.55769 114.978 29.3269C136.747 51.0962 136.747 86.3911 114.978 108.16Z" fill="black"/>
<path d="M196.407 49.536C198.135 47.104 200.503 45.088 203.511 43.488C206.583 41.824 210.071 40.992 213.975 40.992C218.519 40.992 222.615 42.112 226.263 44.352C229.975 46.592 232.887 49.792 234.999 53.952C237.175 58.048 238.263 62.816 238.263 68.256C238.263 73.696 237.175 78.528 234.999 82.752C232.887 86.912 229.975 90.144 226.263 92.448C222.615 94.752 218.519 95.904 213.975 95.904C210.071 95.904 206.615 95.104 203.607 93.504C200.663 91.904 198.263 89.888 196.407 87.456V120.384H182.967V41.856H196.407V49.536ZM224.535 68.256C224.535 65.056 223.863 62.304 222.519 60C221.239 57.632 219.511 55.84 217.335 54.624C215.223 53.408 212.919 52.8 210.423 52.8C207.991 52.8 205.687 53.44 203.511 54.72C201.399 55.936 199.671 57.728 198.327 60.096C197.047 62.464 196.407 65.248 196.407 68.448C196.407 71.648 197.047 74.432 198.327 76.8C199.671 79.168 201.399 80.992 203.511 82.272C205.687 83.488 207.991 84.096 210.423 84.096C212.919 84.096 215.223 83.456 217.335 82.176C219.511 80.896 221.239 79.072 222.519 76.704C223.863 74.336 224.535 71.52 224.535 68.256Z" fill="black"/>
<path d="M258.11 50.112C259.838 47.296 262.078 45.088 264.83 43.488C267.646 41.888 270.846 41.088 274.43 41.088V55.2H270.878C266.654 55.2 263.454 56.192 261.278 58.176C259.166 60.16 258.11 63.616 258.11 68.544V95.04H244.67V41.856H258.11V50.112Z" fill="black"/>
<path d="M303.738 95.904C298.618 95.904 294.01 94.784 289.914 92.544C285.818 90.24 282.586 87.008 280.218 82.848C277.914 78.688 276.762 73.888 276.762 68.448C276.762 63.008 277.946 58.208 280.314 54.048C282.746 49.888 286.042 46.688 290.202 44.448C294.362 42.144 299.002 40.992 304.122 40.992C309.242 40.992 313.882 42.144 318.042 44.448C322.202 46.688 325.466 49.888 327.834 54.048C330.266 58.208 331.482 63.008 331.482 68.448C331.482 73.888 330.234 78.688 327.738 82.848C325.306 87.008 321.978 90.24 317.754 92.544C313.594 94.784 308.922 95.904 303.738 95.904ZM303.738 84.192C306.17 84.192 308.442 83.616 310.554 82.464C312.73 81.248 314.458 79.456 315.738 77.088C317.018 74.72 317.658 71.84 317.658 68.448C317.658 63.392 316.314 59.52 313.626 56.832C311.002 54.08 307.77 52.704 303.93 52.704C300.09 52.704 296.858 54.08 294.234 56.832C291.674 59.52 290.394 63.392 290.394 68.448C290.394 73.504 291.642 77.408 294.138 80.16C296.698 82.848 299.898 84.192 303.738 84.192Z" fill="black"/>
<path d="M351.421 49.632C353.149 47.072 355.517 44.992 358.525 43.392C361.597 41.792 365.085 40.992 368.989 40.992C373.533 40.992 377.629 42.112 381.277 44.352C384.989 46.592 387.901 49.792 390.013 53.952C392.189 58.048 393.277 62.816 393.277 68.256C393.277 73.696 392.189 78.528 390.013 82.752C387.901 86.912 384.989 90.144 381.277 92.448C377.629 94.752 373.533 95.904 368.989 95.904C365.021 95.904 361.533 95.136 358.525 93.6C355.581 92 353.213 89.952 351.421 87.456V95.04H337.981V24H351.421V49.632ZM379.549 68.256C379.549 65.056 378.877 62.304 377.533 60C376.253 57.632 374.525 55.84 372.349 54.624C370.237 53.408 367.933 52.8 365.437 52.8C363.005 52.8 360.701 53.44 358.525 54.72C356.413 55.936 354.685 57.728 353.341 60.096C352.061 62.464 351.421 65.248 351.421 68.448C351.421 71.648 352.061 74.432 353.341 76.8C354.685 79.168 356.413 80.992 358.525 82.272C360.701 83.488 363.005 84.096 365.437 84.096C367.933 84.096 370.237 83.456 372.349 82.176C374.525 80.896 376.253 79.072 377.533 76.704C378.877 74.336 379.549 71.52 379.549 68.256Z" fill="black"/>
<path d="M449.123 67.296C449.123 69.216 448.995 70.944 448.739 72.48H409.859C410.179 76.32 411.523 79.328 413.891 81.504C416.259 83.68 419.171 84.768 422.627 84.768C427.619 84.768 431.171 82.624 433.283 78.336H447.779C446.243 83.456 443.299 87.68 438.947 91.008C434.595 94.272 429.251 95.904 422.915 95.904C417.795 95.904 413.187 94.784 409.091 92.544C405.059 90.24 401.891 87.008 399.587 82.848C397.347 78.688 396.227 73.888 396.227 68.448C396.227 62.944 397.347 58.112 399.587 53.952C401.827 49.792 404.963 46.592 408.995 44.352C413.027 42.112 417.667 40.992 422.915 40.992C427.971 40.992 432.483 42.08 436.451 44.256C440.483 46.432 443.587 49.536 445.763 53.568C448.003 57.536 449.123 62.112 449.123 67.296ZM435.203 63.456C435.139 60 433.891 57.248 431.459 55.2C429.027 53.088 426.051 52.032 422.531 52.032C419.203 52.032 416.387 53.056 414.083 55.104C411.843 57.088 410.467 59.872 409.955 63.456H435.203Z" fill="black"/>
<path d="M496.469 55.104V66.432H455.765V55.104H496.469Z" fill="black"/>
<path d="M521.622 50.112C523.35 47.296 525.59 45.088 528.342 43.488C531.158 41.888 534.358 41.088 537.942 41.088V55.2H534.39C530.166 55.2 526.966 56.192 524.79 58.176C522.678 60.16 521.622 63.616 521.622 68.544V95.04H508.182V41.856H521.622V50.112Z" fill="black"/>
<path d="M563.987 95.904C559.635 95.904 555.731 95.136 552.275 93.6C548.819 92 546.067 89.856 544.019 87.168C542.035 84.48 540.947 81.504 540.755 78.24H554.291C554.547 80.288 555.539 81.984 557.267 83.328C559.059 84.672 561.267 85.344 563.891 85.344C566.451 85.344 568.435 84.832 569.843 83.808C571.315 82.784 572.051 81.472 572.051 79.872C572.051 78.144 571.155 76.864 569.363 76.032C567.635 75.136 564.851 74.176 561.011 73.152C557.043 72.192 553.779 71.2 551.219 70.176C548.723 69.152 546.547 67.584 544.691 65.472C542.899 63.36 542.003 60.512 542.003 56.928C542.003 53.984 542.835 51.296 544.499 48.864C546.227 46.432 548.659 44.512 551.795 43.104C554.995 41.696 558.739 40.992 563.027 40.992C569.363 40.992 574.419 42.592 578.195 45.792C581.971 48.928 584.051 53.184 584.435 58.56H571.571C571.379 56.448 570.483 54.784 568.883 53.568C567.347 52.288 565.267 51.648 562.643 51.648C560.211 51.648 558.323 52.096 556.979 52.992C555.699 53.888 555.059 55.136 555.059 56.736C555.059 58.528 555.955 59.904 557.747 60.864C559.539 61.76 562.323 62.688 566.099 63.648C569.939 64.608 573.107 65.6 575.603 66.624C578.099 67.648 580.243 69.248 582.035 71.424C583.891 73.536 584.851 76.352 584.915 79.872C584.915 82.944 584.051 85.696 582.323 88.128C580.659 90.56 578.227 92.48 575.027 93.888C571.891 95.232 568.211 95.904 563.987 95.904Z" fill="black"/>
</svg>
